<mxfile host="app.diagrams.net" agent="Mozilla/5.0 (Windows NT 10.0; Win64; x64) AppleWebKit/537.36 (KHTML, like Gecko) Chrome/140.0.0.0 Safari/537.36" version="28.2.3">
  <diagram name="Trang-1" id="BWYV4NNgztrfuMDB9CQ9">
    <mxGraphModel dx="1042" dy="527" grid="1" gridSize="10" guides="1" tooltips="1" connect="1" arrows="1" fold="1" page="1" pageScale="1" pageWidth="827" pageHeight="1169" math="0" shadow="0">
      <root>
        <mxCell id="0" />
        <mxCell id="1" parent="0" />
        <mxCell id="uDICb3wfT0ozkOAH-fbf-3" value="" style="edgeStyle=orthogonalEdgeStyle;rounded=0;orthogonalLoop=1;jettySize=auto;html=1;" edge="1" parent="1" source="uDICb3wfT0ozkOAH-fbf-1" target="uDICb3wfT0ozkOAH-fbf-2">
          <mxGeometry relative="1" as="geometry" />
        </mxCell>
        <mxCell id="uDICb3wfT0ozkOAH-fbf-1" value="Bắt đầu&lt;div&gt;&lt;br&gt;&lt;/div&gt;" style="ellipse;whiteSpace=wrap;html=1;" vertex="1" parent="1">
          <mxGeometry x="331" y="20" width="120" height="80" as="geometry" />
        </mxCell>
        <mxCell id="uDICb3wfT0ozkOAH-fbf-5" value="" style="edgeStyle=orthogonalEdgeStyle;rounded=0;orthogonalLoop=1;jettySize=auto;html=1;" edge="1" parent="1" source="uDICb3wfT0ozkOAH-fbf-2" target="uDICb3wfT0ozkOAH-fbf-4">
          <mxGeometry relative="1" as="geometry" />
        </mxCell>
        <mxCell id="uDICb3wfT0ozkOAH-fbf-2" value="Người dùng đưa thẻ ATM vào khe&amp;nbsp;&amp;nbsp;" style="shape=parallelogram;perimeter=parallelogramPerimeter;whiteSpace=wrap;html=1;fixedSize=1;" vertex="1" parent="1">
          <mxGeometry x="331" y="130" width="120" height="60" as="geometry" />
        </mxCell>
        <mxCell id="uDICb3wfT0ozkOAH-fbf-7" value="" style="edgeStyle=orthogonalEdgeStyle;rounded=0;orthogonalLoop=1;jettySize=auto;html=1;" edge="1" parent="1" source="uDICb3wfT0ozkOAH-fbf-4" target="uDICb3wfT0ozkOAH-fbf-6">
          <mxGeometry relative="1" as="geometry" />
        </mxCell>
        <mxCell id="uDICb3wfT0ozkOAH-fbf-9" value="" style="edgeStyle=orthogonalEdgeStyle;rounded=0;orthogonalLoop=1;jettySize=auto;html=1;" edge="1" parent="1" source="uDICb3wfT0ozkOAH-fbf-4" target="uDICb3wfT0ozkOAH-fbf-8">
          <mxGeometry relative="1" as="geometry" />
        </mxCell>
        <mxCell id="uDICb3wfT0ozkOAH-fbf-4" value="Nhập mã PIN" style="whiteSpace=wrap;html=1;" vertex="1" parent="1">
          <mxGeometry x="331" y="270" width="120" height="60" as="geometry" />
        </mxCell>
        <mxCell id="uDICb3wfT0ozkOAH-fbf-13" value="" style="edgeStyle=orthogonalEdgeStyle;rounded=0;orthogonalLoop=1;jettySize=auto;html=1;" edge="1" parent="1" source="uDICb3wfT0ozkOAH-fbf-6" target="uDICb3wfT0ozkOAH-fbf-12">
          <mxGeometry relative="1" as="geometry" />
        </mxCell>
        <mxCell id="uDICb3wfT0ozkOAH-fbf-6" value="PIN đúng" style="rhombus;whiteSpace=wrap;html=1;" vertex="1" parent="1">
          <mxGeometry x="100" y="390" width="80" height="80" as="geometry" />
        </mxCell>
        <mxCell id="uDICb3wfT0ozkOAH-fbf-11" value="" style="edgeStyle=orthogonalEdgeStyle;rounded=0;orthogonalLoop=1;jettySize=auto;html=1;" edge="1" parent="1" source="uDICb3wfT0ozkOAH-fbf-8" target="uDICb3wfT0ozkOAH-fbf-10">
          <mxGeometry relative="1" as="geometry" />
        </mxCell>
        <mxCell id="uDICb3wfT0ozkOAH-fbf-8" value="PIN sai" style="rhombus;whiteSpace=wrap;html=1;" vertex="1" parent="1">
          <mxGeometry x="590" y="390" width="80" height="80" as="geometry" />
        </mxCell>
        <mxCell id="uDICb3wfT0ozkOAH-fbf-10" value="Thông báo lỗi,yêu cầu nhập lại hoặc kết thúc" style="shape=parallelogram;perimeter=parallelogramPerimeter;whiteSpace=wrap;html=1;fixedSize=1;" vertex="1" parent="1">
          <mxGeometry x="570" y="560" width="120" height="60" as="geometry" />
        </mxCell>
        <mxCell id="uDICb3wfT0ozkOAH-fbf-15" value="" style="edgeStyle=orthogonalEdgeStyle;rounded=0;orthogonalLoop=1;jettySize=auto;html=1;" edge="1" parent="1" source="uDICb3wfT0ozkOAH-fbf-12" target="uDICb3wfT0ozkOAH-fbf-14">
          <mxGeometry relative="1" as="geometry" />
        </mxCell>
        <mxCell id="uDICb3wfT0ozkOAH-fbf-12" value="Nhập số tiền cần rút" style="whiteSpace=wrap;html=1;" vertex="1" parent="1">
          <mxGeometry x="80" y="560" width="120" height="60" as="geometry" />
        </mxCell>
        <mxCell id="uDICb3wfT0ozkOAH-fbf-17" value="" style="edgeStyle=orthogonalEdgeStyle;rounded=0;orthogonalLoop=1;jettySize=auto;html=1;" edge="1" parent="1" source="uDICb3wfT0ozkOAH-fbf-14" target="uDICb3wfT0ozkOAH-fbf-16">
          <mxGeometry relative="1" as="geometry" />
        </mxCell>
        <mxCell id="uDICb3wfT0ozkOAH-fbf-21" value="" style="edgeStyle=orthogonalEdgeStyle;rounded=0;orthogonalLoop=1;jettySize=auto;html=1;" edge="1" parent="1" source="uDICb3wfT0ozkOAH-fbf-14" target="uDICb3wfT0ozkOAH-fbf-20">
          <mxGeometry relative="1" as="geometry" />
        </mxCell>
        <mxCell id="uDICb3wfT0ozkOAH-fbf-14" value="Hệ thống kiếm tra hợp lệ hay không" style="rhombus;whiteSpace=wrap;html=1;" vertex="1" parent="1">
          <mxGeometry x="100" y="690" width="80" height="80" as="geometry" />
        </mxCell>
        <mxCell id="uDICb3wfT0ozkOAH-fbf-16" value="Thông báo lỗi" style="shape=parallelogram;perimeter=parallelogramPerimeter;whiteSpace=wrap;html=1;fixedSize=1;" vertex="1" parent="1">
          <mxGeometry x="240" y="700" width="120" height="60" as="geometry" />
        </mxCell>
        <mxCell id="uDICb3wfT0ozkOAH-fbf-23" value="" style="edgeStyle=orthogonalEdgeStyle;rounded=0;orthogonalLoop=1;jettySize=auto;html=1;" edge="1" parent="1" source="uDICb3wfT0ozkOAH-fbf-20" target="uDICb3wfT0ozkOAH-fbf-22">
          <mxGeometry relative="1" as="geometry" />
        </mxCell>
        <mxCell id="uDICb3wfT0ozkOAH-fbf-20" value="Gửi yêu cầu rút tới ngân hàng" style="whiteSpace=wrap;html=1;" vertex="1" parent="1">
          <mxGeometry x="80" y="860" width="120" height="60" as="geometry" />
        </mxCell>
        <mxCell id="uDICb3wfT0ozkOAH-fbf-25" value="" style="edgeStyle=orthogonalEdgeStyle;rounded=0;orthogonalLoop=1;jettySize=auto;html=1;" edge="1" parent="1" source="uDICb3wfT0ozkOAH-fbf-22" target="uDICb3wfT0ozkOAH-fbf-24">
          <mxGeometry relative="1" as="geometry" />
        </mxCell>
        <mxCell id="uDICb3wfT0ozkOAH-fbf-22" value="Trừ tiền trong tài khoản&amp;nbsp;" style="whiteSpace=wrap;html=1;" vertex="1" parent="1">
          <mxGeometry x="80" y="1000" width="120" height="60" as="geometry" />
        </mxCell>
        <mxCell id="uDICb3wfT0ozkOAH-fbf-27" value="" style="edgeStyle=orthogonalEdgeStyle;rounded=0;orthogonalLoop=1;jettySize=auto;html=1;" edge="1" parent="1" source="uDICb3wfT0ozkOAH-fbf-24" target="uDICb3wfT0ozkOAH-fbf-26">
          <mxGeometry relative="1" as="geometry" />
        </mxCell>
        <mxCell id="uDICb3wfT0ozkOAH-fbf-33" value="" style="edgeStyle=orthogonalEdgeStyle;rounded=0;orthogonalLoop=1;jettySize=auto;html=1;" edge="1" parent="1" source="uDICb3wfT0ozkOAH-fbf-24" target="uDICb3wfT0ozkOAH-fbf-32">
          <mxGeometry relative="1" as="geometry" />
        </mxCell>
        <mxCell id="uDICb3wfT0ozkOAH-fbf-24" value="Xuất tiền mặt" style="shape=parallelogram;perimeter=parallelogramPerimeter;whiteSpace=wrap;html=1;fixedSize=1;" vertex="1" parent="1">
          <mxGeometry x="80" y="1140" width="120" height="60" as="geometry" />
        </mxCell>
        <mxCell id="uDICb3wfT0ozkOAH-fbf-29" value="" style="edgeStyle=orthogonalEdgeStyle;rounded=0;orthogonalLoop=1;jettySize=auto;html=1;" edge="1" parent="1" source="uDICb3wfT0ozkOAH-fbf-26" target="uDICb3wfT0ozkOAH-fbf-28">
          <mxGeometry relative="1" as="geometry" />
        </mxCell>
        <mxCell id="uDICb3wfT0ozkOAH-fbf-26" value="Yêu cầu in biên lai" style="rhombus;whiteSpace=wrap;html=1;" vertex="1" parent="1">
          <mxGeometry x="300" y="1130" width="80" height="80" as="geometry" />
        </mxCell>
        <mxCell id="uDICb3wfT0ozkOAH-fbf-28" value="In biên lai" style="shape=parallelogram;perimeter=parallelogramPerimeter;whiteSpace=wrap;html=1;fixedSize=1;" vertex="1" parent="1">
          <mxGeometry x="440" y="1140" width="120" height="60" as="geometry" />
        </mxCell>
        <mxCell id="uDICb3wfT0ozkOAH-fbf-32" value="Trả thẻ ATM" style="shape=parallelogram;perimeter=parallelogramPerimeter;whiteSpace=wrap;html=1;fixedSize=1;" vertex="1" parent="1">
          <mxGeometry x="80" y="1280" width="120" height="60" as="geometry" />
        </mxCell>
        <mxCell id="uDICb3wfT0ozkOAH-fbf-34" value="Kết thúc" style="ellipse;whiteSpace=wrap;html=1;" vertex="1" parent="1">
          <mxGeometry x="90" y="1410" width="120" height="80" as="geometry" />
        </mxCell>
        <mxCell id="uDICb3wfT0ozkOAH-fbf-35" value="" style="endArrow=classic;html=1;rounded=0;" edge="1" parent="1" source="uDICb3wfT0ozkOAH-fbf-32" target="uDICb3wfT0ozkOAH-fbf-34">
          <mxGeometry width="50" height="50" relative="1" as="geometry">
            <mxPoint x="390" y="1350" as="sourcePoint" />
            <mxPoint x="440" y="1300" as="targetPoint" />
          </mxGeometry>
        </mxCell>
      </root>
    </mxGraphModel>
  </diagram>
</mxfile>
